<?xml version="1.0" encoding="utf-8"?>
<!-- Generator: Adobe Illustrator 16.0.0, SVG Export Plug-In . SVG Version: 6.00 Build 0)  -->
<!DOCTYPE svg PUBLIC "-//W3C//DTD SVG 1.1//EN" "http://www.w3.org/Graphics/SVG/1.1/DTD/svg11.dtd">
<svg version="1.1" id="Capa_1" xmlns="http://www.w3.org/2000/svg" xmlns:xlink="http://www.w3.org/1999/xlink" x="0px" y="0px"
	 width="286px" height="42.215px" viewBox="0 0 286 42.215" enable-background="new 0 0 286 42.215" xml:space="preserve">
<g>
	<path fill="#FFFFFF" d="M29.032,24.14h-7.642l-4.026,8.049h3.02l-0.075,0.709h-6.001l0.075-0.709h2.013L29.219,6.922h4.473
		l3.653,25.267h2.199l-0.074,0.709h-11.63l0.075-0.709h2.013L29.032,24.14z M21.801,23.32h7.157l-1.379-11.292L21.801,23.32z"/>
	<path fill="#FFFFFF" d="M51.545,29.506c0-2.049-1.677-2.533-4.175-3.465c-2.125-0.783-4.436-2.013-4.436-5.106
		c0-4.099,3.951-6.149,9.095-6.149c3.02,0,6.672,0.484,6.672,3.727c0,1.677-1.156,2.795-3.094,2.795
		c-1.305,0-2.535-0.67-2.535-1.789c0-0.634,0.149-1.23,0.559-1.751h1.193c0.149-0.335,0.224-0.634,0.224-0.895
		c0-0.857-0.82-1.305-2.498-1.305c-2.796,0-3.951,1.193-3.951,2.497c0,1.826,1.305,2.348,3.765,3.317
		c2.498,0.969,5.256,1.938,5.256,5.068c0,4.548-4.212,6.82-9.766,6.82c-4.175,0-6.971-1.304-6.971-4.062
		c0-2.051,1.342-3.094,3.206-3.094c1.603,0,2.46,1.006,2.46,2.311c0,0.484-0.112,1.006-0.335,1.527h-1.491
		c-0.112,0.262-0.149,0.484-0.149,0.709c0,0.969,0.895,1.789,2.982,1.789C50.8,32.451,51.545,30.736,51.545,29.506z"/>
	<path fill="#FFFFFF" d="M77.301,18.997c0,3.652-3.988,4.733-7.455,5.218c-1.193,0.149-2.125,0.186-2.908,0.186
		c-0.522,5.255,0.522,7.528,3.131,7.528c1.826,0,3.839-1.304,5.144-5.366l0.745,0.224c-1.379,4.584-4.1,6.484-8.573,6.484
		c-4.734,0-7.53-2.534-7.53-6.932c0-7.64,4.622-11.553,11.22-11.553C75.289,14.786,77.301,16.239,77.301,18.997z M70.741,15.494
		c-2.013,0-3.168,3.689-3.728,8.199c2.535-0.112,4.846-1.342,4.846-5.925C71.859,16.388,71.635,15.494,70.741,15.494z"/>
	<path fill="#FFFFFF" d="M81.624,39.01c-0.335,1.528,0.41,2.348,2.087,2.348c2.871,0,4.436-2.012,6.039-8.496
		c0.224-0.97,0.373-1.529,0.634-2.758l-0.149-0.075c-0.932,1.677-2.497,3.242-5.74,3.242c-3.84,0-5.89-2.087-5.89-6.373
		c0-5.627,2.162-12.111,8.946-12.111c2.796,0,3.84,1.565,4.361,2.72l0.522-2.199c1.752,0.038,5.368-0.037,6.821-0.335
		c-0.783,3.801-1.267,5.739-2.758,15.541c-1.192,7.9-5.964,11.702-12.673,11.702c-3.281,0-6.636-1.305-6.636-4.323
		c0-2.385,1.603-3.651,3.467-3.651c1.864,0,3.579,1.08,3.094,4.136L81.624,39.01z M90.085,27.941
		c0.82-2.348,1.379-5.367,1.379-7.975c0-2.422-0.82-3.913-2.125-3.913c-1.268,0-2.125,1.341-2.796,3.801
		c-0.783,2.87-1.342,6.074-1.342,9.204c0,1.379,0.298,2.759,1.678,2.759C87.998,31.817,89.153,30.662,90.085,27.941z"/>
	<path fill="#FFFFFF" d="M104.137,15.83h-2.535l0.111-0.671h9.543c-1.603,6.969-2.535,11.18-2.945,13.863
		c-0.149,0.932-0.373,2.162,0.895,2.162c1.64,0,3.541-3.839,4.548-9.242c0.41-2.124,0.82-4.771,0.82-6.41
		c1.155,0.037,6.412-0.224,7.455-0.447c-0.932,4.51-2.236,10.994-2.646,14.386c-0.149,1.229-0.298,2.385,0.857,2.385
		c0.671,0,1.454-0.56,2.46-2.087l0.597,0.447c-1.529,2.348-3.169,3.056-5.369,3.056c-4.174,0-5.554-2.124-4.286-6.373l-0.224-0.074
		c-1.342,3.614-3.206,6.447-7.492,6.447c-3.542,0-4.697-2.46-4.1-5.665C102.422,24.438,103.652,18.103,104.137,15.83z"/>
	<path fill="#FFFFFF" d="M126.09,25.557l1.342-9.727h-2.535l0.112-0.671h9.208l-1.604,7.006l0.188,0.037
		c1.08-2.87,3.764-7.416,7.939-7.416c1.641,0,3.467,0.82,3.467,3.316c0,2.46-1.604,3.578-3.541,3.615
		c-0.82,0-1.715-0.187-2.572-0.634l-0.224-3.093c-2.013,0.074-3.989,2.795-4.921,6.857c-0.783,3.429-0.969,5.739-1.044,7.864
		c-1.565-0.075-5.591,0.224-7.492,0.483L126.09,25.557z"/>
	<path fill="#FFFFFF" d="M166.198,30.104c-1.343,2.198-2.945,3.167-4.995,3.167c-3.69,0-5.07-1.863-4.473-4.882l-0.188-0.037
		c-1.006,2.906-2.906,4.919-6.15,4.919c-4.323,0-6.001-2.497-6.001-6.484c0-6.857,3.132-12,9.17-12c2.759,0,3.616,1.043,4.175,2.459
		l0.521-1.975c1.789,0.037,5.368,0,6.822-0.298c-0.932,4.584-1.901,8.907-2.721,14.311c-0.075,0.484-0.15,1.006-0.15,1.342
		c0,0.969,0.447,1.192,0.97,1.192c0.56,0,1.379-0.373,2.46-2.05L166.198,30.104z M155.984,27.568
		c0.82-2.609,1.305-5.702,1.305-8.683c0-2.236-1.043-3.093-2.088-3.093c-1.117,0-1.9,1.043-2.646,3.652
		c-0.819,2.87-1.49,6.97-1.49,9.651c0,1.268,0.148,2.722,1.603,2.722C153.822,31.817,155.09,30.513,155.984,27.568z"/>
	<path fill="#FFFFFF" d="M187.108,19.817c-0.634,3.54-1.229,6.633-1.715,9.466c-0.073,0.484-0.149,1.006-0.149,1.342
		c0,0.969,0.448,1.192,0.97,1.192c0.56,0,1.38-0.373,2.46-2.05l0.56,0.336c-1.342,2.198-3.02,3.167-5.069,3.167
		c-3.69,0-5.07-1.863-4.473-4.882l-0.188-0.037c-1.006,2.906-2.907,4.919-6.15,4.919c-4.324,0-6.002-2.497-6.002-6.484
		c0-6.857,3.132-12,9.17-12c2.647,0,3.654,1.192,4.287,2.87l1.826-12.038h-2.422l0.111-0.671h9.469L187.108,19.817z M178.945,27.568
		c0.82-2.609,1.305-5.702,1.305-8.683c0-2.236-1.044-3.093-2.088-3.093c-1.118,0-1.9,1.043-2.646,3.652
		c-0.82,2.87-1.49,6.97-1.49,9.651c0,1.268,0.148,2.722,1.602,2.722C176.783,31.817,178.051,30.513,178.945,27.568z"/>
	<path fill="#FFFFFF" d="M190.35,26.264c0-6.67,3.802-11.478,10.959-11.478c4.957,0,7.642,2.012,7.642,6.708
		c0,7.826-4.437,11.776-10.922,11.776C192.885,33.271,190.35,30.885,190.35,26.264z M202.65,18.065c0-1.677-0.447-2.608-1.528-2.608
		c-2.311,0-2.944,2.869-3.951,8.832c-0.41,2.385-0.597,4.51-0.597,5.814c0,1.714,0.447,2.496,1.678,2.496
		c2.088,0,2.646-2.049,3.803-8.944C202.427,21.345,202.65,19.482,202.65,18.065z"/>
	<path fill="#FFFFFF" d="M220.654,29.506c0-2.049-1.678-2.533-4.176-3.465c-2.124-0.783-4.436-2.013-4.436-5.106
		c0-4.099,3.951-6.149,9.096-6.149c3.02,0,6.672,0.484,6.672,3.727c0,1.677-1.155,2.795-3.094,2.795
		c-1.305,0-2.535-0.67-2.535-1.789c0-0.634,0.15-1.23,0.56-1.751h1.192c0.15-0.335,0.225-0.634,0.225-0.895
		c0-0.857-0.82-1.305-2.498-1.305c-2.795,0-3.951,1.193-3.951,2.497c0,1.826,1.305,2.348,3.766,3.317
		c2.496,0.969,5.255,1.938,5.255,5.068c0,4.548-4.212,6.82-9.767,6.82c-4.174,0-6.97-1.304-6.97-4.062
		c0-2.051,1.341-3.094,3.206-3.094c1.602,0,2.459,1.006,2.459,2.311c0,0.484-0.111,1.006-0.335,1.527h-1.491
		c-0.111,0.262-0.148,0.484-0.148,0.709c0,0.969,0.895,1.789,2.981,1.789C219.908,32.451,220.654,30.736,220.654,29.506z"/>
	<path fill="#629FCE" d="M236.383,29.357c0,2.422-1.528,3.913-3.803,3.913c-2.124,0-2.795-1.453-2.795-2.758
		c0-2.235,1.863-3.651,3.765-3.651C235.265,26.861,236.383,27.755,236.383,29.357z"/>
	<path fill="#629FCE" d="M247.246,30.041c-0.344,1.309-1.17,3.029-3.7,3.029c-2.41,0-3.632-1.205-3.632-3.322
		c0-3.148,1.945-5.213,5.318-5.213c1.894,0,2.65,0.946,2.65,1.945c0,0.929-0.499,1.807-1.651,1.807c-0.93,0-1.205-0.567-1.205-1.084
		c0-0.292,0.12-0.62,0.258-0.912h0.724c0.137-0.327,0.188-0.585,0.188-0.792c0-0.533-0.379-0.653-0.723-0.653
		c-1.102,0-1.652,1.29-1.945,2.892c-0.154,0.859-0.292,1.771-0.292,2.735c0,1.429,0.43,1.995,1.359,1.995
		c0.774,0,1.808-0.67,2.307-2.512L247.246,30.041z"/>
	<path fill="#629FCE" d="M248.279,29.835c0-3.08,1.756-5.3,5.061-5.3c2.289,0,3.528,0.93,3.528,3.098
		c0,3.613-2.048,5.438-5.043,5.438C249.45,33.07,248.279,31.969,248.279,29.835z M253.96,26.049c0-0.773-0.207-1.204-0.706-1.204
		c-1.067,0-1.359,1.325-1.824,4.078c-0.189,1.101-0.275,2.082-0.275,2.685c0,0.791,0.206,1.152,0.774,1.152
		c0.964,0,1.222-0.945,1.755-4.129C253.856,27.563,253.96,26.703,253.96,26.049z"/>
	<path fill="#629FCE" d="M263.943,26.961c0.293-1.119,0.327-1.549-0.154-1.549c-0.379,0-0.947,0.414-1.602,1.79
		c-0.619,1.308-0.964,2.856-1.153,5.644c-0.533-0.017-2.942,0.07-3.425,0.173l0.724-3.2l0.705-4.802h-1.188l0.034-0.31h4.354
		l-0.671,2.856l0.052,0.017c0.774-1.703,1.583-3.045,3.563-3.045c1.118,0,1.566,0.568,1.566,1.412c0,0.378-0.104,0.809-0.258,1.272
		l0.068,0.018c0.481-1.049,1.309-2.702,3.339-2.702c1.153,0,1.773,0.655,1.79,1.618c0,0.551-0.086,1.05-0.189,1.48l-0.809,3.234
		c-0.104,0.43-0.207,0.895-0.207,1.084c0,0.345,0.207,0.413,0.448,0.413c0.258,0,0.653-0.275,1.084-0.998l0.293,0.173
		c-0.654,1.031-1.291,1.531-2.548,1.531c-1.308,0-2.254-0.551-2.254-2.014c0-1.136,0.877-3.752,1.015-4.096
		c0.293-0.809,0.586-1.549-0.034-1.549c-0.379,0-0.878,0.534-1.395,1.531c-0.739,1.43-1.136,3.408-1.411,5.902
		c-0.499-0.017-2.84,0.07-3.271,0.173C262.859,30.971,263.393,29.112,263.943,26.961z"/>
</g>
</svg>
